<svg width="40" height="40" viewBox="0 0 40 40" fill="none" xmlns="http://www.w3.org/2000/svg">
<path d="M19.6068 0.527389C14.8625 0.528838 10.2795 2.24997 6.70703 5.37187C3.13459 8.49377 0.81488 12.8048 0.177722 17.5061C-0.459436 22.2075 0.629156 26.9804 3.24179 30.9406C5.85442 34.9007 9.81398 37.7796 14.3868 39.0437C14.583 39.1176 14.7924 39.1497 15.0017 39.1381C15.211 39.1265 15.4156 39.0713 15.6024 38.9763C15.7892 38.8812 15.9542 38.7482 16.0867 38.5858C16.2193 38.4234 16.3166 38.2352 16.3723 38.0332C16.4281 37.8311 16.4412 37.6196 16.4107 37.4122C16.3802 37.2048 16.3068 37.0061 16.1952 36.8286C16.0836 36.6512 15.9363 36.4989 15.7626 36.3816C15.5889 36.2642 15.3927 36.1844 15.1864 36.1471C11.3893 35.1073 8.08552 32.7516 5.86517 29.5006C3.64482 26.2496 2.65252 22.3152 3.06552 18.4C3.47851 14.4849 5.26991 10.8441 8.11971 8.12794C10.9695 5.41179 14.6921 3.79722 18.6226 3.57262C22.553 3.34802 26.4353 4.52803 29.576 6.90187C32.7166 9.2757 34.9111 12.6887 35.7674 16.5314C36.6237 20.374 36.086 24.3958 34.2505 27.8786C32.4149 31.3613 29.401 34.0781 25.7471 35.5436C25.8422 33.5612 25.6902 31.5746 25.2945 29.6296C27.4389 29.154 29.351 27.9468 30.7026 26.2153C32.0543 24.4838 32.7612 22.3359 32.702 20.1401C32.8109 18.0747 32.2558 16.0287 31.1179 14.3016C31.3288 12.5879 31.1218 10.8487 30.5145 9.23242C30.4013 8.89541 30.1727 8.6092 29.8691 8.42426C29.5655 8.23933 29.2063 8.16756 28.8549 8.22161C27.0353 8.47012 25.2965 9.13058 23.7707 10.1527C22.4115 9.79134 21.013 9.59879 19.6068 9.57941C18.0781 9.61969 16.5592 9.83739 15.0808 10.2281C13.6143 9.10627 11.8275 8.48251 9.98146 8.44791C9.65618 8.4287 9.33343 8.51532 9.06149 8.69481C8.78954 8.87429 8.58301 9.137 8.47279 9.44363C7.91949 10.9837 7.72848 12.6305 7.91458 14.2563C6.83207 16.0246 6.28209 18.0674 6.33047 20.1401C6.38638 22.3248 7.15308 24.4318 8.51433 26.1415C9.87558 27.8513 11.7572 29.0705 13.8738 29.6146C13.7769 30.0075 13.7014 30.4053 13.6475 30.8064C12.1389 30.8969 11.2638 29.9766 10.1474 28.5736C9.49022 27.4692 8.4477 26.647 7.22059 26.2653C6.83952 26.1974 6.44692 26.2785 6.12399 26.4919C5.80106 26.7053 5.57251 27.0347 5.48562 27.4119C5.40206 27.7894 5.46661 28.1845 5.66593 28.5158C5.86525 28.847 6.18413 29.0891 6.55678 29.1921C6.79816 29.1921 7.38654 29.9766 7.71845 30.4141C8.3196 31.3927 9.14758 32.212 10.1323 32.8029C11.1171 33.3937 12.2297 33.7387 13.376 33.8087C14.039 33.8078 14.6989 33.7164 15.3372 33.5371C15.4935 33.4908 15.6413 33.4195 15.7748 33.3259C15.8849 33.2388 15.9771 33.1312 16.0463 33.0091C16.0943 32.9713 16.1352 32.9254 16.167 32.8733C16.2062 32.7912 16.2365 32.7053 16.2575 32.6168C16.2946 32.5184 16.3248 32.4176 16.348 32.3151V32.3151C16.343 31.3126 16.5812 30.3238 17.042 29.4335C17.2295 29.2143 17.3502 28.946 17.3899 28.6604C17.4295 28.3747 17.3865 28.0837 17.2658 27.8217C17.1452 27.5598 16.952 27.3379 16.7091 27.1824C16.4662 27.0268 16.1839 26.9442 15.8954 26.9442C14.1469 26.8455 12.5004 26.0894 11.286 24.8274C10.0716 23.5655 9.3793 21.8911 9.34782 20.1401C9.2731 18.5278 9.73466 16.9362 10.6604 15.6141C10.8105 15.4457 10.921 15.2458 10.9836 15.0291C11.0463 14.8124 11.0595 14.5844 11.0224 14.3619C10.8488 13.4397 10.8488 12.4931 11.0224 11.5709C12.0097 11.7799 12.9189 12.2607 13.6475 12.9588C13.8442 13.1476 14.0883 13.2795 14.354 13.3406C14.6196 13.4017 14.8968 13.3897 15.1562 13.3058C16.606 12.8923 18.1002 12.6542 19.6068 12.5968C20.9627 12.6306 22.3077 12.8489 23.6048 13.2455C23.8575 13.3391 24.1308 13.3633 24.3961 13.3156C24.6615 13.2678 24.9092 13.1499 25.1134 12.9739C25.9924 12.2497 27.024 11.7339 28.1308 11.4653C28.357 12.4124 28.357 13.3996 28.1308 14.3468C28.0717 14.6185 28.0853 14.901 28.17 15.1658C28.2548 15.4306 28.4077 15.6685 28.6135 15.8555C29.4992 17.097 29.8819 18.6279 29.6847 20.1401C29.7202 21.0268 29.573 21.9114 29.2522 22.7388C28.9314 23.5663 28.4439 24.3189 27.8199 24.9499C27.196 25.581 26.4489 26.0769 25.6251 26.407C24.8014 26.7371 23.9185 26.8943 23.0315 26.8688C22.7232 26.8678 22.422 26.9612 22.1685 27.1365C21.9149 27.3119 21.7212 27.5607 21.6133 27.8494C21.5038 28.1382 21.4856 28.4537 21.5612 28.7531C21.6367 29.0526 21.8024 29.3217 22.0357 29.524C22.9259 30.2935 22.7901 35.5587 22.7448 37.6105C22.7389 37.8447 22.7877 38.0771 22.8872 38.2892C22.9867 38.5013 23.1342 38.6873 23.3181 38.8325C23.5855 39.0401 23.915 39.1517 24.2535 39.1494C24.3788 39.1641 24.5054 39.1641 24.6306 39.1494C29.2812 37.9693 33.3378 35.1255 36.033 31.1561C38.7281 27.1867 39.8747 22.367 39.2558 17.6092C38.6369 12.8514 36.2955 8.48546 32.6745 5.33762C29.0536 2.18979 24.4044 0.478426 19.6068 0.527389V0.527389Z" fill="white"/>
</svg>
