<svg width="40" height="40" viewBox="0 0 40 40" fill="none" xmlns="http://www.w3.org/2000/svg">
<path d="M20.1381 0.526367C16.2591 0.526367 12.4672 1.67663 9.24187 3.83171C6.01658 5.98678 3.50277 9.04987 2.01833 12.6336C0.533889 16.2174 0.145491 20.1608 0.902252 23.9653C1.65901 27.7698 3.52694 31.2645 6.26983 34.0074C9.01272 36.7503 12.5074 38.6182 16.3119 39.3749C20.1164 40.1317 24.0598 39.7433 27.6436 38.2589C31.2273 36.7744 34.2904 34.2606 36.4455 31.0353C38.6006 27.81 39.7508 24.0181 39.7508 20.1391C39.7508 14.9375 37.6845 9.9489 34.0064 6.2708C30.3283 2.5927 25.3397 0.526367 20.1381 0.526367ZM33.0373 9.71417C35.3675 12.5915 36.6686 16.1655 36.7335 19.8675C32.8973 18.8157 28.8824 18.5844 24.9508 19.1886C24.5434 18.208 24.1059 17.2424 23.6684 16.292C27.2072 14.7612 30.3955 12.5227 33.0373 9.71417ZM20.1381 3.54371C24.1026 3.54821 27.9344 4.97178 30.9402 7.55677C28.5257 10.1593 25.5837 12.2167 22.3106 13.5915C20.9719 11.0851 19.4596 8.67536 17.7846 6.38001L17.3772 5.83689C17.1349 5.51912 16.7764 5.31047 16.3805 5.25673C15.9845 5.20299 15.5834 5.30855 15.2651 5.55024C14.945 5.79031 14.7334 6.14772 14.6768 6.54382C14.6202 6.93992 14.7233 7.34228 14.9634 7.66238L15.3556 8.16024C16.8516 10.2214 18.2026 12.384 19.3989 14.6324C14.3802 16.0096 9.18111 16.6149 3.98025 16.4278C4.81964 12.7695 6.87435 9.50375 9.80896 7.16373C12.7436 4.82371 16.3848 3.5476 20.1381 3.54371ZM3.54274 20.1391C3.54274 19.8977 3.54274 19.6714 3.54274 19.4451H5.26262C10.5255 19.5693 15.775 18.8616 20.817 17.348C21.2244 18.1929 21.6015 19.0227 21.9636 19.8977C17.36 21.3974 13.275 24.1696 10.1809 27.8936C9.98954 28.1115 9.865 28.3798 9.82218 28.6666C9.77936 28.9533 9.82007 29.2463 9.93944 29.5105C10.0588 29.7748 10.2518 29.999 10.4953 30.1564C10.7388 30.3138 11.0225 30.3977 11.3124 30.398C11.5291 30.3999 11.7438 30.3551 11.9416 30.2666C12.1395 30.1781 12.3159 30.0479 12.459 29.8851C15.2544 26.5199 18.9723 24.0448 23.1555 22.7642C24.2665 25.8456 25.1588 29.0015 25.8258 32.2084C26.037 33.2796 26.2331 34.3658 26.3991 35.437C24.418 36.278 22.2902 36.7189 20.1381 36.7345C15.7367 36.7345 11.5157 34.986 8.40341 31.8738C5.29118 28.7616 3.54274 24.5404 3.54274 20.1391ZM29.1901 34.0189C29.0544 33.2343 28.9186 32.4347 28.7677 31.6502C28.0798 28.4141 27.1725 25.2284 26.0521 22.1154C29.5413 21.6746 33.0838 21.9518 36.4619 22.9301C36.0772 25.179 35.2329 27.3244 33.9817 29.2324C32.7305 31.1403 31.0994 32.7697 29.1901 34.0189Z" fill="white"/>
</svg>
