<svg width="53" height="53" viewBox="0 0 53 53" fill="none" xmlns="http://www.w3.org/2000/svg">
<path d="M22.2434 25.8872C23.4455 24.7485 24.2787 23.2756 24.6354 21.6587C24.992 20.0418 24.8557 18.355 24.2442 16.8163C23.6326 15.2776 22.5738 13.9576 21.2045 13.0266C19.8352 12.0957 18.2183 11.5966 16.5625 11.5938H6.625C6.18574 11.5938 5.76446 11.7682 5.45385 12.0789C5.14325 12.3895 4.96875 12.8107 4.96875 13.25V39.75C4.96875 40.1893 5.14325 40.6105 5.45385 40.9211C5.76446 41.2318 6.18574 41.4062 6.625 41.4062H18.2188C20.0533 41.4064 21.8359 40.7974 23.2868 39.6748C24.7378 38.5522 25.7749 36.9796 26.2354 35.2039C26.696 33.4281 26.5538 31.5497 25.8313 29.8635C25.1088 28.1772 23.8468 26.7786 22.2434 25.8872ZM18.2188 38.0938H8.28125V14.9062H16.5625C17.8803 14.9062 19.1441 15.4297 20.0759 16.3616C21.0078 17.2934 21.5312 18.5572 21.5312 19.875C21.5312 21.1928 21.0078 22.4566 20.0759 23.3884C19.1441 24.3203 17.8803 24.8438 16.5625 24.8438H13.25C12.8107 24.8438 12.3895 25.0182 12.0789 25.3289C11.7682 25.6395 11.5938 26.0607 11.5938 26.5C11.5938 26.9393 11.7682 27.3605 12.0789 27.6711C12.3895 27.9818 12.8107 28.1562 13.25 28.1562H18.2188C19.5365 28.1562 20.8004 28.6797 21.7322 29.6116C22.664 30.5434 23.1875 31.8072 23.1875 33.125C23.1875 34.4428 22.664 35.7066 21.7322 36.6384C20.8004 37.5703 19.5365 38.0938 18.2188 38.0938Z" fill="white"/>
<path d="M38.0933 19.875C35.3502 19.9913 32.7647 21.1892 30.9024 23.2066C29.0401 25.2241 28.0526 27.897 28.1558 30.6406C28.0526 33.3843 29.0401 36.0571 30.9024 38.0746C32.7647 40.0921 35.3502 41.29 38.0933 41.4062C39.6817 41.3826 41.2403 40.972 42.6343 40.2101C44.0282 39.4482 45.2154 38.3579 46.093 37.0338C46.339 36.6692 46.43 36.2218 46.3462 35.79C46.2623 35.3583 46.0104 34.9775 45.6458 34.7316C45.2812 34.4856 44.8338 34.3945 44.4021 34.4784C43.9703 34.5622 43.5896 34.8142 43.3436 35.1788C42.7773 36.0605 42.0014 36.7882 41.0852 37.2969C40.169 37.8056 39.1411 38.0793 38.0933 38.0938C36.2284 37.9785 34.4849 37.13 33.2436 35.7335C32.0023 34.3371 31.3641 32.5061 31.4683 30.6406C31.3641 28.7751 32.0023 26.9442 33.2436 25.5477C34.4849 24.1513 36.2284 23.3027 38.0933 23.1875C39.6734 23.2604 41.1796 23.8774 42.3568 24.9339C43.5341 25.9904 44.3098 27.4214 44.5527 28.9844H35.5923C35.1531 28.9844 34.7318 29.1589 34.4212 29.4695C34.1106 29.7801 33.9361 30.2014 33.9361 30.6406C33.9361 31.0799 34.1106 31.5012 34.4212 31.8118C34.7318 32.1224 35.1531 32.2969 35.5923 32.2969H46.3745C46.8138 32.2969 47.2351 32.1224 47.5457 31.8118C47.8563 31.5012 48.0308 31.0799 48.0308 30.6406C48.134 27.897 47.1464 25.2241 45.2841 23.2066C43.4218 21.1892 40.8364 19.9913 38.0933 19.875Z" fill="white"/>
<path d="M32.2969 16.5625H43.8906C44.3299 16.5625 44.7512 16.388 45.0618 16.0774C45.3724 15.7668 45.5469 15.3455 45.5469 14.9062C45.5469 14.467 45.3724 14.0457 45.0618 13.7351C44.7512 13.4245 44.3299 13.25 43.8906 13.25H32.2969C31.8576 13.25 31.4363 13.4245 31.1257 13.7351C30.8151 14.0457 30.6406 14.467 30.6406 14.9062C30.6406 15.3455 30.8151 15.7668 31.1257 16.0774C31.4363 16.388 31.8576 16.5625 32.2969 16.5625Z" fill="white"/>
</svg>
