<svg width="38" height="38" viewBox="0 0 38 38" fill="none" xmlns="http://www.w3.org/2000/svg">
<path d="M5.34375 0.3125C4.34867 0.3125 3.37592 0.607578 2.54854 1.16042C1.72116 1.71326 1.07629 2.49903 0.695483 3.41837C0.31468 4.33771 0.215044 5.34933 0.409176 6.3253C0.603308 7.30127 1.08249 8.19775 1.78612 8.90138C2.48975 9.60501 3.38624 10.0842 4.3622 10.2783C5.33817 10.4725 6.34979 10.3728 7.26913 9.99202C8.18847 9.61122 8.97424 8.96635 9.52708 8.13896C10.0799 7.31158 10.375 6.33884 10.375 5.34375C10.375 4.00938 9.84493 2.72966 8.90138 1.78612C7.95784 0.842577 6.67812 0.3125 5.34375 0.3125ZM5.34375 7.5C4.91729 7.5 4.5004 7.37354 4.1458 7.13661C3.79121 6.89967 3.51484 6.56291 3.35164 6.16891C3.18844 5.77491 3.14573 5.34136 3.22893 4.92309C3.31213 4.50482 3.5175 4.12061 3.81905 3.81905C4.12061 3.51749 4.50482 3.31213 4.92309 3.22893C5.34136 3.14573 5.77491 3.18843 6.16891 3.35163C6.56292 3.51484 6.89968 3.79121 7.13661 4.1458C7.37354 4.5004 7.5 4.91728 7.5 5.34375C7.5 5.91562 7.27283 6.46407 6.86845 6.86845C6.46408 7.27283 5.91563 7.5 5.34375 7.5Z" fill="white"/>
<path d="M8.9375 11.8125H1.75C1.36875 11.8125 1.00312 11.964 0.733534 12.2335C0.46395 12.5031 0.3125 12.8688 0.3125 13.25C0.3125 13.6312 0.46395 13.9969 0.733534 14.2665C1.00312 14.536 1.36875 14.6875 1.75 14.6875H7.5V34.8125H3.1875V19C3.1875 18.6188 3.03605 18.2531 2.76647 17.9835C2.49688 17.714 2.13125 17.5625 1.75 17.5625C1.36875 17.5625 1.00312 17.714 0.733534 17.9835C0.46395 18.2531 0.3125 18.6188 0.3125 19V36.25C0.3125 36.6312 0.46395 36.9969 0.733534 37.2665C1.00312 37.5361 1.36875 37.6875 1.75 37.6875H8.9375C9.31875 37.6875 9.68438 37.5361 9.95397 37.2665C10.2235 36.9969 10.375 36.6312 10.375 36.25V13.25C10.375 12.8688 10.2235 12.5031 9.95397 12.2335C9.68438 11.964 9.31875 11.8125 8.9375 11.8125Z" fill="white"/>
<path d="M35.3013 14.2274C34.4775 13.4257 33.5003 12.7985 32.4282 12.3835C31.3562 11.9685 30.2114 11.7743 29.0625 11.8124H27.625C25.6288 11.7216 23.6444 12.1631 21.875 13.0918C21.8359 12.7386 21.6674 12.4124 21.4019 12.1761C21.1364 11.9398 20.7929 11.8103 20.4375 11.8124H13.25C12.8688 11.8124 12.5031 11.9639 12.2335 12.2335C11.964 12.5031 11.8125 12.8687 11.8125 13.2499V36.2499C11.8125 36.6312 11.964 36.9968 12.2335 37.2664C12.5031 37.536 12.8688 37.6874 13.25 37.6874H20.4375C20.8187 37.6874 21.1844 37.536 21.454 37.2664C21.7236 36.9968 21.875 36.6312 21.875 36.2499V23.3124C21.875 22.5499 22.1779 21.8187 22.7171 21.2795C23.2562 20.7403 23.9875 20.4374 24.75 20.4374C25.5125 20.4374 26.2438 20.7403 26.7829 21.2795C27.3221 21.8187 27.625 22.5499 27.625 23.3124V36.2499C27.625 36.6312 27.7765 36.9968 28.046 37.2664C28.3156 37.536 28.6813 37.6874 29.0625 37.6874H36.25C36.6313 37.6874 36.9969 37.536 37.2665 37.2664C37.5361 36.9968 37.6875 36.6312 37.6875 36.2499V20.4374C37.7288 19.2949 37.5387 18.1559 37.1287 17.0887C36.7186 16.0215 36.097 15.0483 35.3013 14.2274ZM34.8125 34.8124H30.5V23.3124C30.5 21.7874 29.8942 20.3249 28.8159 19.2466C27.7375 18.1682 26.275 17.5624 24.75 17.5624C23.225 17.5624 21.7625 18.1682 20.6841 19.2466C19.6058 20.3249 19 21.7874 19 23.3124V34.8124H14.6875V14.6874H19V16.1249C19.0014 16.4087 19.0868 16.6858 19.2454 16.9211C19.404 17.1565 19.6287 17.3396 19.8913 17.4474C20.153 17.5575 20.4416 17.5876 20.7204 17.5339C20.9993 17.4801 21.256 17.345 21.4581 17.1456C22.8237 15.7081 23.9019 14.6874 27.625 14.6874H29.0625C29.8314 14.6544 30.5991 14.7761 31.3201 15.0452C32.0412 15.3144 32.7008 15.7255 33.26 16.2543C33.7844 16.813 34.1919 17.4708 34.4585 18.1891C34.7252 18.9075 34.8455 19.6719 34.8125 20.4374V34.8124Z" fill="white"/>
</svg>
